<?xml version="1.0" standalone="no"?>
<!DOCTYPE svg PUBLIC "-//W3C//DTD SVG 20010904//EN"
 "http://www.w3.org/TR/2001/REC-SVG-20010904/DTD/svg10.dtd">
<svg version="1.0" xmlns="http://www.w3.org/2000/svg"
 width="1024.000000pt" height="1024.000000pt" viewBox="0 0 1024.000000 1024.000000"
 preserveAspectRatio="xMidYMid meet">

<g transform="translate(0.000000,1024.000000) scale(0.100000,-0.100000)"
fill="#000000" stroke="none">
<path d="M2427 6439 c-230 -20 -428 -91 -630 -226 -293 -194 -505 -523 -564
-873 -46 -269 -4 -576 109 -805 68 -137 146 -244 262 -361 221 -220 485 -350
785 -384 96 -12 299 -9 396 5 57 8 195 46 195 54 0 3 11 7 24 7 41 3 246 109
331 171 316 234 489 519 551 908 13 78 10 281 -4 375 -49 318 -220 620 -472
829 -109 91 -312 205 -405 227 -16 4 -34 10 -40 14 -31 23 -363 75 -435 69 -8
-1 -54 -5 -103 -10z m357 -34 c264 -46 507 -175 707 -374 115 -115 186 -214
254 -356 90 -190 121 -323 124 -536 5 -364 -108 -666 -344 -917 -68 -72 -225
-202 -245 -202 -4 0 -11 12 -15 27 -14 56 23 53 -704 53 -738 0 -721 1 -721
-56 0 -34 -15 -30 -79 18 -182 136 -352 351 -431 546 -90 222 -116 506 -69
762 72 391 345 742 720 926 93 46 177 74 309 103 111 24 370 28 494 6z m416
-2434 c0 -8 -135 -74 -215 -105 -22 -8 -87 -25 -145 -38 -89 -19 -134 -23
-290 -23 -193 1 -253 9 -400 57 -71 23 -250 103 -250 112 0 3 293 6 650 6 358
0 650 -4 650 -9z"/>
<path d="M2598 6192 c-25 -26 -58 -67 -73 -90 -26 -40 -30 -42 -79 -42 -64 0
-198 -34 -240 -60 -38 -23 -92 -87 -111 -133 -8 -18 -75 -88 -155 -162 -135
-124 -160 -157 -160 -210 0 -12 45 -102 60 -120 12 -14 64 -5 84 15 11 11 46
14 46 3 0 -3 -15 -19 -32 -33 l-32 -27 51 -26 51 -26 35 42 c21 26 60 56 99
75 70 36 65 35 190 32 73 -2 93 1 134 21 55 28 104 88 123 150 22 72 25 76 29
34 5 -59 -14 -111 -61 -162 -46 -50 -103 -83 -142 -83 -31 0 -58 -28 -182
-187 -83 -107 -148 -221 -171 -298 -32 -111 -24 -233 22 -337 l21 -49 65 6
c165 16 314 53 489 124 81 33 256 115 269 126 1 1 -8 42 -20 91 -28 117 -28
244 2 379 43 197 50 241 50 328 0 163 -81 320 -211 409 -46 31 -48 34 -54 93
-7 63 -32 152 -45 160 -4 3 -28 -17 -52 -43z m184 -319 c22 -20 23 -46 3 -63
-11 -9 -15 -33 -15 -91 0 -75 -1 -78 -30 -99 -28 -20 -30 -25 -30 -89 0 -63
-3 -72 -35 -115 -36 -46 -61 -56 -83 -34 -16 16 -15 29 8 58 17 22 22 23 39
13 28 -18 41 9 41 85 0 54 3 63 30 89 28 26 30 33 30 99 0 51 -4 75 -15 84
-19 16 -19 44 1 64 20 20 33 20 56 -1z m-523 -42 c14 -26 -8 -54 -39 -49 -25
3 -36 27 -26 54 8 20 53 17 65 -5z m649 -133 c31 -31 -5 -92 -47 -81 -28 7
-91 -64 -91 -104 0 -18 -4 -33 -10 -33 -5 0 -10 20 -10 45 0 39 4 47 39 75 26
22 37 37 34 50 -8 30 15 60 45 60 16 0 33 -5 40 -12z m-1048 -167 c0 -22 -16
-36 -24 -22 -8 12 3 41 15 41 5 0 9 -9 9 -19z m910 -109 c0 -40 -5 -53 -28
-75 -28 -26 -31 -27 -156 -27 -127 0 -129 0 -151 -26 -23 -27 -60 -28 -49 -2
16 40 87 56 257 58 49 0 62 4 82 26 16 18 25 39 25 60 0 19 5 34 10 34 6 0 10
-22 10 -48z m56 -138 c17 -24 16 -26 -9 -51 -26 -26 -26 -26 -54 -8 -22 15
-53 20 -138 23 l-111 4 -32 -36 c-29 -34 -31 -41 -30 -106 l1 -70 -41 -36
c-42 -35 -42 -36 -42 -103 0 -64 2 -69 35 -101 l35 -34 0 29 c0 16 -10 39 -22
52 -18 19 -20 27 -10 48 8 18 19 25 40 25 47 0 67 -36 38 -69 -9 -11 -16 -53
-20 -125 -3 -60 -8 -112 -12 -115 -12 -12 -24 27 -22 72 1 44 -2 51 -45 95
l-47 48 0 71 c0 70 1 72 40 112 39 39 40 42 40 113 0 70 1 73 37 110 l37 38
121 0 c109 0 124 2 140 20 25 27 51 25 71 -6z m-256 -122 c18 -15 20 -21 11
-45 -7 -17 -18 -27 -31 -27 -32 0 -26 -50 10 -80 l30 -24 0 -151 c0 -82 -3
-160 -6 -172 -15 -55 -23 -11 -26 141 -3 162 -3 165 -29 193 -21 22 -28 42
-33 92 -6 68 2 91 34 91 10 0 28 -8 40 -18z m254 2 c32 -32 13 -74 -34 -74
-18 0 -42 -16 -79 -53 l-52 -54 0 -127 c1 -131 -4 -176 -20 -176 -5 0 -9 68
-8 156 l2 157 58 57 c42 41 59 64 59 83 0 41 45 60 74 31z m-506 -16 c18 -18
14 -53 -8 -73 -13 -11 -18 -25 -15 -37 9 -26 -6 -159 -16 -152 -5 3 -9 45 -9
95 0 54 -4 89 -10 89 -19 0 -33 46 -21 69 13 23 59 29 79 9z m502 -116 c0 -4
-21 -32 -47 -62 l-48 -54 -1 -100 c0 -60 -5 -101 -11 -103 -13 -5 -23 54 -23
142 l0 69 57 58 c54 55 73 68 73 50z m-632 -104 c17 -17 15 -67 -3 -74 -12 -5
-15 -27 -15 -107 0 -89 3 -103 23 -131 34 -45 39 -56 28 -56 -6 0 -26 16 -46
35 l-35 36 0 108 c0 88 -3 110 -15 115 -18 7 -20 57 -3 74 7 7 21 12 33 12 12
0 26 -5 33 -12z m666 -37 c18 -19 15 -61 -4 -61 -5 0 -10 -14 -12 -32 -4 -41
-28 -50 -28 -10 0 16 -7 35 -15 42 -18 15 -20 51 -3 68 18 18 42 15 62 -7z
m-502 -138 c48 -51 49 -54 45 -104 -3 -27 -8 -53 -12 -57 -11 -12 -25 22 -25
65 0 36 -7 49 -49 95 -41 45 -47 57 -39 72 10 18 11 18 21 0 5 -10 32 -43 59
-71z m-73 -47 c37 -38 42 -48 39 -81 -4 -53 -28 -59 -28 -8 0 32 -7 46 -40 78
-35 34 -43 55 -21 55 4 0 26 -20 50 -44z"/>
<path d="M2735 5851 c-8 -15 3 -31 21 -31 9 0 14 7 12 17 -4 20 -24 28 -33 14z"/>
<path d="M2610 5410 c0 -5 4 -10 9 -10 6 0 13 5 16 10 3 6 -1 10 -9 10 -9 0
-16 -4 -16 -10z"/>
<path d="M2857 5674 c-9 -10 2 -24 19 -24 8 0 14 7 14 15 0 15 -21 21 -33 9z"/>
<path d="M2770 5265 c0 -8 7 -15 15 -15 8 0 15 7 15 15 0 8 -7 15 -15 15 -8 0
-15 -7 -15 -15z"/>
<path d="M2441 4890 c-16 -9 -6 -30 15 -30 15 0 20 25 6 34 -4 2 -14 1 -21 -4z"/>
<path d="M2520 5136 c0 -8 4 -17 9 -20 11 -7 33 18 24 27 -12 12 -33 7 -33 -7z"/>
<path d="M2782 5134 c4 -21 22 -23 26 -1 2 10 -3 17 -13 17 -10 0 -15 -6 -13
-16z"/>
<path d="M2260 5116 c0 -15 24 -28 34 -19 13 14 5 33 -14 33 -11 0 -20 -6 -20
-14z"/>
<path d="M2142 4894 c4 -21 22 -23 26 -1 2 10 -3 17 -13 17 -10 0 -15 -6 -13
-16z"/>
<path d="M2807 4874 c-9 -10 2 -24 19 -24 8 0 14 7 14 15 0 15 -21 21 -33 9z"/>
<path d="M2345 6194 c-16 -3 -53 -9 -82 -15 l-52 -10 25 -50 c20 -40 29 -49
45 -44 10 3 27 7 37 10 9 2 48 6 86 7 68 2 68 3 97 45 17 24 25 44 19 48 -13
8 -137 14 -175 9z"/>
<path d="M2737 6093 c6 -48 17 -63 76 -110 38 -29 99 -105 126 -156 73 -135
80 -267 26 -524 -35 -167 -44 -297 -26 -378 6 -26 11 -30 38 -29 17 1 46 9 63
18 18 8 47 18 66 22 19 3 36 9 38 13 2 3 -8 36 -24 73 -43 101 -50 194 -35
498 11 220 -50 387 -192 522 -33 31 -139 98 -157 98 -3 0 -3 -21 1 -47z"/>
<path d="M3393 5226 c-57 -34 -103 -64 -103 -67 0 -4 16 -10 36 -13 52 -10 52
-29 -2 -93 -84 -99 -168 -175 -269 -244 -219 -152 -440 -248 -695 -301 -140
-29 -381 -32 -451 -5 -68 26 -93 57 -86 104 4 20 16 50 27 65 33 44 9 31 -31
-17 -68 -82 -61 -155 19 -198 75 -40 144 -52 287 -51 295 3 544 79 867 266
136 78 285 216 385 356 25 34 48 62 51 62 3 0 21 -14 39 -32 l33 -32 1 55 c1
29 3 86 5 126 2 40 0 74 -4 76 -4 2 -53 -24 -109 -57z"/>
<path d="M2950 4592 c-54 -33 -251 -123 -335 -151 -140 -48 -302 -74 -475 -77
l-165 -2 -23 -45 c-13 -25 -26 -70 -29 -101 l-6 -56 638 0 638 0 -6 58 c-6 72
-33 126 -93 189 -57 60 -66 82 -51 122 10 26 8 34 -9 58 -28 37 -33 37 -84 5z"/>
<path d="M4880 5295 l0 -315 70 0 70 0 0 149 0 150 26 20 c15 12 39 21 54 21
15 0 39 -9 54 -21 l26 -20 0 -150 0 -149 70 0 70 0 0 163 c0 180 -9 227 -47
257 -61 47 -168 49 -223 4 l-29 -25 -3 113 -3 113 -67 3 -68 3 0 -316z"/>
<path d="M6407 5603 c-4 -3 -7 -145 -7 -315 l0 -308 70 0 69 0 3 111 3 111 75
-111 74 -111 84 0 c64 0 81 3 76 13 -4 6 -43 58 -86 114 -43 55 -78 105 -78
111 0 5 36 53 80 105 44 53 80 98 80 101 0 3 -36 6 -80 6 l-80 0 -72 -95 -73
-94 -3 184 -2 185 -64 0 c-34 0 -66 -3 -69 -7z"/>
<path d="M4490 5561 c-130 -42 -200 -163 -187 -320 14 -172 129 -271 315 -271
33 0 84 5 112 11 l50 11 0 60 c0 58 -1 60 -22 53 -13 -4 -60 -10 -105 -12 -71
-4 -87 -2 -121 17 -53 30 -74 70 -79 149 -4 55 -1 74 19 111 33 65 75 85 168
83 41 0 87 -6 102 -11 32 -13 38 -2 38 63 0 31 -5 45 -17 50 -26 11 -244 16
-273 6z"/>
<path d="M6940 5270 l0 -290 71 0 72 0 -5 190 c-3 105 -5 190 -3 190 1 0 33
-63 71 -140 l68 -141 46 3 45 3 67 135 67 135 1 -187 0 -188 70 0 70 0 0 290
0 291 -86 -3 -86 -3 -72 -152 c-39 -84 -73 -153 -76 -153 -3 0 -37 70 -75 155
l-69 155 -88 0 -88 0 0 -290z"/>
<path d="M8260 5490 l0 -60 -35 0 c-19 0 -35 -4 -36 -10 0 -5 -1 -26 -1 -45 0
-19 1 -39 1 -45 1 -5 17 -10 36 -10 l35 0 0 -97 c1 -123 11 -178 40 -208 29
-31 106 -49 175 -40 l55 6 0 55 0 54 -44 -6 c-36 -5 -47 -3 -65 15 -19 19 -21
32 -21 121 l0 100 60 0 60 0 0 55 0 55 -60 0 -60 0 0 60 0 60 -70 0 -70 0 0
-60z"/>
<path d="M5561 5426 c-91 -30 -141 -106 -141 -216 0 -109 33 -171 114 -212 51
-26 172 -34 241 -16 l50 13 3 54 c3 48 1 53 -15 47 -42 -17 -121 -26 -162 -20
-46 7 -91 41 -91 69 0 13 22 15 151 15 l152 0 -6 70 c-7 90 -37 147 -93 177
-53 29 -144 38 -203 19z m136 -108 c13 -12 23 -32 23 -45 0 -22 -3 -23 -84
-23 l-85 0 11 30 c20 60 91 80 135 38z"/>
<path d="M6095 5431 c-108 -28 -165 -108 -165 -231 0 -42 7 -70 28 -111 45
-89 122 -126 247 -116 99 8 105 11 105 61 0 57 -10 69 -44 56 -38 -14 -91 -13
-132 5 -86 36 -84 185 3 221 35 15 105 14 147 -2 11 -4 15 7 17 46 3 43 1 54
-14 62 -25 13 -154 19 -192 9z"/>
<path d="M7806 5430 c-76 -14 -76 -14 -76 -71 0 -45 2 -50 18 -43 9 4 54 9 99
12 72 4 83 2 102 -17 12 -12 21 -30 21 -40 0 -18 -7 -20 -84 -20 -96 0 -142
-15 -175 -57 -32 -40 -27 -141 9 -179 47 -50 140 -58 216 -20 27 14 50 25 52
25 1 0 2 -9 2 -20 0 -18 7 -20 60 -20 l60 0 0 163 c0 193 -12 232 -79 266 -46
24 -153 34 -225 21z m164 -290 c0 -42 -31 -70 -79 -70 -63 0 -90 42 -54 82 12
13 31 18 75 18 58 0 58 0 58 -30z"/>
<path d="M8749 5427 c-63 -18 -104 -50 -128 -101 -48 -98 -33 -223 34 -291 60
-59 178 -80 300 -52 l50 12 3 54 c3 45 1 53 -13 48 -8 -4 -44 -11 -79 -17 -95
-17 -159 5 -179 63 -6 16 5 17 144 17 l151 0 -3 79 c-4 71 -7 83 -35 118 -17
21 -44 46 -60 55 -40 23 -129 30 -185 15z m126 -112 c14 -13 25 -33 25 -45 0
-19 -6 -20 -85 -20 -47 0 -85 3 -85 8 1 18 29 56 51 68 36 20 67 17 94 -11z"/>
</g>
</svg>
