<?xml version="1.0" standalone="no"?>
<!DOCTYPE svg PUBLIC "-//W3C//DTD SVG 20010904//EN"
 "http://www.w3.org/TR/2001/REC-SVG-20010904/DTD/svg10.dtd">
<svg version="1.0" xmlns="http://www.w3.org/2000/svg"
 width="500.000000pt" height="500.000000pt" viewBox="0 0 500.000000 500.000000"
 preserveAspectRatio="xMidYMid meet">

<g transform="translate(0.000000,500.000000) scale(0.100000,-0.100000)"
fill="#000000" stroke="none">
<path d="M2335 3769 c-606 -55 -1088 -505 -1191 -1113 -22 -129 -15 -361 15
-488 70 -304 224 -550 466 -747 397 -322 975 -382 1438 -150 109 55 130 68
232 150 236 190 388 429 466 734 20 79 23 115 23 290 1 159 -3 215 -17 275
-28 117 -67 228 -110 315 -249 497 -766 783 -1322 734z m345 -24 c363 -64 678
-265 874 -559 68 -103 96 -154 131 -241 196 -490 86 -1037 -283 -1410 -68 -70
-209 -185 -225 -185 -4 0 -7 10 -7 23 0 12 -7 33 -16 45 l-15 22 -675 0 c-661
0 -674 0 -694 -20 -11 -11 -20 -31 -20 -45 0 -14 -3 -25 -7 -25 -15 0 -153
112 -216 175 -249 249 -386 576 -387 923 -1 639 455 1180 1092 1297 102 18
343 18 448 0z m444 -2426 c-7 -11 -110 -60 -204 -97 -120 -47 -314 -82 -453
-82 -83 0 -259 21 -327 39 -90 25 -108 30 -145 44 -70 26 -193 85 -199 96 -5
8 184 11 664 11 480 0 669 -3 664 -11z"/>
<path d="M2508 3522 c-25 -27 -57 -67 -71 -89 l-25 -40 -79 -6 c-43 -3 -108
-15 -145 -26 -55 -18 -74 -30 -114 -74 -25 -28 -51 -63 -56 -77 -7 -22 -152
-166 -269 -268 -24 -21 -40 -46 -47 -73 -9 -35 -7 -48 14 -94 37 -80 42 -82
119 -47 36 17 65 27 65 22 0 -5 -16 -24 -35 -41 -19 -18 -35 -35 -35 -39 0 -8
67 -40 84 -40 8 0 29 19 49 43 24 30 57 53 104 75 65 30 72 31 129 22 160 -26
297 68 320 218 11 72 28 64 21 -11 -7 -76 -31 -129 -81 -179 -38 -38 -113 -78
-145 -78 -11 0 -28 -14 -40 -32 -11 -18 -31 -45 -45 -59 -64 -69 -175 -222
-209 -289 -70 -140 -81 -259 -35 -402 l22 -68 58 0 c77 0 214 24 345 61 158
44 442 177 428 199 -23 37 -38 138 -39 255 0 116 3 144 33 255 37 142 48 267
32 355 -22 120 -105 249 -212 329 -32 23 -38 33 -44 84 -7 58 -31 140 -44 155
-4 4 -28 -14 -53 -41z m183 -302 c23 -13 26 -62 4 -80 -11 -9 -15 -33 -15 -85
0 -68 -2 -75 -28 -97 -25 -21 -30 -33 -35 -98 -3 -40 -10 -76 -15 -79 -4 -3
-14 -21 -21 -39 -24 -58 -91 -52 -91 8 0 36 21 52 62 48 l33 -3 3 65 c2 54 8
71 32 102 26 32 30 45 30 101 0 45 -5 68 -15 77 -21 17 -19 67 3 79 22 13 29
13 53 1z m-520 -51 c9 -18 7 -25 -9 -41 -28 -28 -62 -16 -62 22 0 43 51 56 71
19z m657 -158 c5 -29 -15 -51 -43 -51 -14 0 -39 -17 -64 -42 l-41 -43 0 -79
c0 -75 -2 -80 -30 -107 -30 -29 -31 -29 -158 -29 -124 0 -129 -1 -152 -25 -16
-17 -27 -22 -34 -15 -6 6 -2 18 14 35 23 24 27 25 155 25 131 0 131 0 158 28
25 26 27 35 27 108 l0 80 40 39 c30 29 40 47 40 71 0 58 80 63 88 5z m-1053
-132 c5 -14 1 -27 -9 -37 -21 -21 -28 -12 -20 26 7 37 20 41 29 11z m959 -248
c25 -27 17 -64 -16 -75 -23 -8 -32 -6 -51 12 -21 20 -34 22 -127 22 l-104 0
-38 -37 c-36 -36 -38 -40 -38 -104 0 -64 -1 -68 -40 -108 -38 -39 -40 -44 -40
-106 0 -57 3 -69 25 -90 13 -14 27 -25 30 -25 12 0 4 48 -10 60 -8 7 -15 25
-15 41 0 37 36 57 69 40 25 -14 29 -62 6 -81 -12 -10 -15 -37 -15 -126 0 -95
-3 -114 -15 -114 -12 0 -15 14 -15 68 0 67 0 68 -45 112 -45 44 -45 44 -45
115 0 70 1 72 40 110 39 38 40 41 40 109 0 69 1 71 42 113 l42 43 118 0 c105
0 120 2 138 20 25 25 42 25 64 1z m-263 -121 c31 -17 22 -80 -12 -80 -28 0
-24 -42 6 -70 25 -23 25 -25 25 -202 0 -112 -4 -178 -10 -178 -11 0 -14 65
-12 226 2 98 1 103 -27 138 -18 22 -28 45 -26 58 3 11 -2 33 -10 48 -12 23
-12 30 1 49 17 23 35 26 65 11z m260 0 c27 -15 26 -66 -2 -80 -11 -7 -27 -9
-35 -6 -9 4 -35 -15 -69 -49 l-54 -54 -3 -157 c-2 -115 -6 -158 -15 -162 -10
-3 -13 34 -13 160 l0 164 60 59 c37 37 60 68 60 81 0 23 24 54 41 54 6 0 19
-5 30 -10z m-503 -22 c19 -19 14 -56 -8 -70 -18 -12 -20 -24 -20 -143 l0 -131
50 -49 51 -50 -3 -59 c-2 -36 -8 -61 -15 -64 -10 -3 -13 13 -13 58 0 61 -1 64
-45 108 l-45 45 0 136 c0 125 -2 137 -20 149 -24 15 -26 45 -4 66 18 19 55 21
72 4z m506 -115 c3 -4 -18 -32 -48 -62 l-55 -56 -3 -110 c-2 -60 -7 -109 -11
-107 -5 1 -9 55 -8 119 l0 116 53 54 c54 54 60 58 72 46z m-630 -125 c8 -21 6
-32 -7 -46 -14 -15 -17 -40 -17 -129 l0 -111 30 -23 c16 -13 30 -27 30 -31 0
-17 -27 -6 -57 23 l-33 30 0 105 c0 92 -3 108 -21 134 -21 28 -21 30 -5 55 23
35 67 31 80 -7z m656 -18 c11 -11 20 -27 20 -35 0 -8 -9 -24 -20 -35 -11 -11
-20 -31 -20 -45 0 -14 -4 -25 -10 -25 -5 0 -10 12 -10 28 0 15 -9 35 -20 45
-26 22 -25 52 2 71 29 20 34 20 58 -4z m-581 -179 c37 -36 41 -44 41 -90 0
-39 -4 -51 -15 -51 -11 0 -15 12 -15 46 0 39 -5 51 -35 81 -19 19 -32 39 -29
44 8 13 9 13 53 -30z"/>
<path d="M2644 3189 c-9 -15 11 -33 30 -26 9 4 13 13 10 22 -7 17 -30 20 -40
4z"/>
<path d="M2515 2760 c-8 -14 3 -30 21 -30 8 0 14 9 14 20 0 21 -24 28 -35 10z"/>
<path d="M2771 3021 c-15 -10 -8 -41 9 -41 15 0 25 29 14 40 -5 5 -15 5 -23 1z"/>
<path d="M2685 2610 c-8 -14 3 -30 21 -30 8 0 14 9 14 20 0 21 -24 28 -35 10z"/>
<path d="M2340 2220 c0 -11 7 -20 15 -20 8 0 15 9 15 20 0 11 -7 20 -15 20 -8
0 -15 -9 -15 -20z"/>
<path d="M2427 2483 c-3 -5 -2 -15 3 -22 10 -17 43 -6 38 12 -6 15 -34 22 -41
10z"/>
<path d="M2690 2470 c0 -15 5 -20 18 -18 9 2 17 10 17 18 0 8 -8 16 -17 18
-13 2 -18 -3 -18 -18z"/>
<path d="M2172 2453 c2 -10 10 -18 18 -18 8 0 16 8 18 18 2 12 -3 17 -18 17
-15 0 -20 -5 -18 -17z"/>
<path d="M2044 2239 c-3 -6 -2 -15 4 -21 13 -13 32 -2 32 18 0 16 -26 19 -36
3z"/>
<path d="M2710 2201 c0 -15 6 -21 21 -21 25 0 22 33 -4 38 -12 2 -17 -3 -17
-17z"/>
<path d="M2280 3521 c-25 -6 -25 -8 -17 -48 7 -39 11 -43 38 -43 28 0 29 1 29
50 0 52 -1 53 -50 41z"/>
<path d="M2344 3503 c2 -16 5 -38 5 -50 2 -37 33 -27 63 20 l27 42 -22 7 c-12
3 -35 6 -50 7 -25 1 -27 -2 -23 -26z"/>
<path d="M2175 3513 c-44 -7 -47 -14 -21 -58 20 -36 26 -40 56 -37 19 1 36 4
38 6 2 2 0 25 -3 50 -8 48 -7 48 -70 39z"/>
<path d="M2648 3420 c2 -27 8 -50 12 -50 9 0 54 69 49 74 -9 8 -48 26 -56 26
-4 0 -6 -22 -5 -50z"/>
<path d="M2701 3393 l-19 -38 26 -19 25 -19 30 33 29 33 -28 23 c-16 13 -32
23 -36 24 -4 0 -16 -17 -27 -37z"/>
<path d="M2777 3342 c-15 -16 -27 -32 -27 -36 0 -4 19 -31 42 -59 24 -29 44
-54 45 -56 1 -2 41 23 72 45 5 4 -63 95 -86 117 -19 16 -21 16 -46 -11z"/>
<path d="M2883 3199 c-18 -12 -33 -22 -33 -23 0 -2 5 -17 11 -35 12 -33 14
-33 77 -10 l23 9 -21 40 c-11 22 -21 40 -23 40 -1 0 -17 -10 -34 -21z"/>
<path d="M2914 3106 c-31 -14 -31 -15 -20 -51 10 -35 13 -36 45 -31 44 7 44 8
36 55 -7 44 -14 47 -61 27z"/>
<path d="M2950 3013 c-38 -7 -42 -16 -35 -77 l7 -57 37 3 c29 2 37 7 39 27 5
31 -7 111 -16 110 -4 -1 -18 -4 -32 -6z"/>
<path d="M2916 2848 c-13 -50 -8 -58 33 -58 36 0 39 2 44 33 6 42 2 47 -37 47
-26 0 -35 -5 -40 -22z"/>
<path d="M2905 2767 c-2 -7 -6 -27 -9 -44 l-5 -33 43 0 c42 0 44 1 49 37 4 20
5 38 4 39 -1 0 -19 4 -40 7 -25 4 -39 2 -42 -6z"/>
<path d="M2887 2673 c-3 -4 -8 -25 -12 -46 l-7 -38 53 3 54 3 3 38 c2 27 -1
37 -11 37 -8 0 -28 3 -45 6 -16 3 -32 2 -35 -3z"/>
<path d="M3303 2562 c-56 -31 -102 -60 -103 -63 0 -4 20 -10 45 -13 25 -4 45
-13 45 -19 0 -28 -127 -167 -225 -246 -216 -177 -515 -319 -790 -376 -242 -50
-495 -29 -534 43 -16 30 -13 84 5 112 8 14 -1 7 -20 -14 -80 -87 -46 -176 83
-217 55 -18 322 -23 416 -9 414 64 817 288 1030 575 29 38 58 81 65 94 l12 23
33 -32 33 -32 7 83 c4 46 5 98 3 116 l-3 32 -102 -57z"/>
<path d="M2857 2553 c-21 -77 -21 -76 20 -70 21 4 53 7 71 7 31 0 32 2 32 40
l0 40 -59 0 c-48 0 -61 -3 -64 -17z"/>
<path d="M2840 2414 c0 -53 1 -56 23 -51 12 3 48 11 80 18 59 13 64 18 51 67
-6 20 -12 22 -80 22 l-74 0 0 -56z"/>
<path d="M2995 2375 c-5 -1 -37 -8 -70 -15 -33 -7 -65 -14 -71 -15 -8 -3 -9
-18 -2 -57 5 -29 11 -55 13 -56 7 -7 185 52 185 60 0 9 -39 89 -43 87 -1 0 -6
-2 -12 -4z"/>
<path d="M2812 1904 c-280 -156 -651 -237 -917 -200 -18 2 -58 -95 -63 -151
l-4 -53 631 0 631 0 0 48 c0 63 -35 135 -99 206 -52 57 -62 87 -41 126 9 16 5
25 -17 48 l-28 28 -93 -52z"/>
</g>
</svg>
